<svg xmlns="http://www.w3.org/2000/svg" viewBox="0 0 32.48 32.32"><defs><style>.cls-1{fill:#d7df23;}.cls-2{fill:#39b54a;}.cls-3,.cls-4{fill:#8dc63f;}.cls-3{opacity:0.14;}.cls-4{opacity:0.3;}.cls-5{fill:#fff;}.cls-6{fill:#f7941d;}.cls-7{fill:#f15a29;}.cls-8{fill:#ed1c24;opacity:0.41;}.cls-9{fill:#ef4136;}.cls-10,.cls-11{fill:#c49a6c;}.cls-10{opacity:0.53;}.cls-11{opacity:0.75;}.cls-12{fill:#231f20;}</style></defs><title>Asset 2</title><g id="Layer_2" data-name="Layer 2"><g id="Layer_1-2" data-name="Layer 1"><path class="cls-1" d="M13.13,21.27l10.63-1.88a11,11,0,0,1,8.72-3.09v-.17a16.13,16.13,0,1,0-1.73,7.26C23.31,25.44,13.13,21.27,13.13,21.27Z"/><path class="cls-2" d="M16.36,32.25a14.13,14.13,0,0,1-6.92-1.09l-.82-.35c-.28-.12-.52-.29-.79-.43l-.77-.45-.74-.52c-.23-.18-.49-.34-.71-.55l-.67-.6L4.61,28c-.11-.1-.21-.21-.31-.32L3.69,27a7.59,7.59,0,0,1-.56-.71l-.53-.72C2.27,25,2,24.53,1.68,24l-.38-.81A8.51,8.51,0,0,1,1,22.36l-.29-.85-.14-.42c0-.15-.07-.29-.1-.44A11.47,11.47,0,0,1,.11,18.9L0,18a8.62,8.62,0,0,1,0-.88,12.67,12.67,0,0,1,.42-3.48,17.14,17.14,0,0,0,.14,3.44,7.9,7.9,0,0,0,.11.85l.17.83a15.23,15.23,0,0,0,.44,1.64,16.47,16.47,0,0,0,3.27,5.83l.56.62a2.8,2.8,0,0,0,.28.31l.31.29.62.57c.2.19.44.34.65.52l.66.52.71.46a14.19,14.19,0,0,0,1.47.83A18.49,18.49,0,0,0,16.36,32.25Z"/><path class="cls-3" d="M21.2,27.55A16.13,16.13,0,0,1,5.07,11.42,16,16,0,0,1,7.77,2.5a16.12,16.12,0,1,0,22,22.56A16,16,0,0,1,21.2,27.55Z"/><path class="cls-4" d="M18.52,31.51A16.13,16.13,0,0,1,12,.63,16.13,16.13,0,1,0,22.87,30.91,16,16,0,0,1,18.52,31.51Z"/><path class="cls-5" d="M7.25,5.06A8.45,8.45,0,0,0,6.6,16.69a16,16,0,0,0,8.46,5.18h0a1.14,1.14,0,0,0,1.38-1.31,16.18,16.18,0,0,1,.24-6.37,18.89,18.89,0,0,1,.57-1.85,1.18,1.18,0,0,0,0-.72,16,16,0,0,1-.11-8c.11-.46.24-.91.38-1.35A1.15,1.15,0,0,0,16.36.75,16.18,16.18,0,0,0,7.25,5.06Z"/><path class="cls-6" d="M28.26,12.42c0-.43,0-.85-.07-1.27H14.61V24A11.72,11.72,0,0,0,28.26,12.42Z"/><path class="cls-7" d="M28.26,12.42l-.08-1.27h0q-3.4,0-6.79.13l-6.79.25.39-.39.09,3.22c0,1.07.06,2.15.06,3.22l0,3.22,0,3.22-.45-.53a9.88,9.88,0,0,0,2.43.17c.2,0,.41,0,.61,0l.61-.07a8.46,8.46,0,0,0,1.2-.23,11.27,11.27,0,0,0,8.72-10.93Zm0,0a12.29,12.29,0,0,1-1,5,12.6,12.6,0,0,1-3,4.16,11.9,11.9,0,0,1-4.49,2.6,9.21,9.21,0,0,1-1.28.32l-.65.12c-.22,0-.44,0-.66.06a11.2,11.2,0,0,1-2.65-.08l-.45-.06V24l0-3.22,0-3.22c0-1.07,0-2.15.06-3.22l.1-3.22v-.41l.38,0L21.4,11c2.26.07,4.52.12,6.79.13h0Z"/><path class="cls-8" d="M14.72,24.09s.4-6,11.74-5.31L14.72,19Z"/><path class="cls-6" d="M16.36,0a14.43,14.43,0,0,0-1.75.1V18.72H32.27a15.88,15.88,0,0,0,.21-2.59A16.13,16.13,0,0,0,16.36,0Z"/><path class="cls-9" d="M14.61.1c.13,1.55.2,3.1.28,4.65s.13,3.11.16,4.66.06,3.1.1,4.65l0,4.66-.56-.57c1.47,0,2.94,0,4.41,0s2.95,0,4.42.09,2.94.1,4.42.17,2.94.15,4.41.27c-1.47.12-2.94.19-4.41.27s-2.95.13-4.42.16-2.94.07-4.42.1l-4.41,0H14v-.57l0-4.66c0-1.55,0-3.1.09-4.65s.1-3.11.16-4.66S14.48,1.65,14.61.1Z"/><path class="cls-5" d="M23.55,2.89a9.9,9.9,0,0,1,3.61,2.4,13.49,13.49,0,0,1,2.56,3.57c.18.33.3.68.45,1l.21.52c.06.17.11.34.16.52.11.35.21.7.31,1.06s.13.72.19,1.08a6.61,6.61,0,0,1,.12,1.08c0,.37,0,.73,0,1.09a15.48,15.48,0,0,1-.2,2.16c-.23-.7-.34-1.39-.53-2.07-.1-.33-.2-.67-.28-1-.05-.17-.09-.34-.14-.5l-.17-.49c-.11-.33-.21-.65-.31-1s-.25-.63-.38-.95c-.06-.16-.11-.32-.18-.47l-.21-.46c-.15-.31-.26-.63-.43-.92a23.38,23.38,0,0,0-2.11-3.48A25,25,0,0,0,23.55,2.89Z"/><path class="cls-5" d="M9.18,7.46c0,.52,0,.86,0,1.17a2.85,2.85,0,0,0,.06.49c0,.19.09.38.13.65a1.07,1.07,0,0,1-.66-.37,1.18,1.18,0,0,1-.28-.73,1.24,1.24,0,0,1,.19-.74A1.09,1.09,0,0,1,9.18,7.46Z"/><circle class="cls-10" cx="9.69" cy="8.39" r="2.17"/><path class="cls-11" d="M7.94,7.21,8.13,7a2.17,2.17,0,0,0,3.58,2.37,1.51,1.51,0,0,1-.15.28A2.17,2.17,0,0,1,7.94,7.21Z"/><circle class="cls-12" cx="10.05" cy="8.71" r="1.68"/><path class="cls-12" d="M9.58,7.74a1.34,1.34,0,0,0-.36,2"/><path class="cls-5" d="M9.58,7.74c0,.3-.05.51-.07.68s0,.28-.06.38-.06.17-.1.32-.06.34-.13.64a.82.82,0,0,1-.71-.37,1,1,0,0,1-.16-.84,1,1,0,0,1,.45-.67A1,1,0,0,1,9.58,7.74Z"/></g></g></svg>